<?xml version="1.0" encoding="UTF-8" standalone="no"?>
<!DOCTYPE svg PUBLIC "-//W3C//DTD SVG 1.1//EN"
 "http://www.w3.org/Graphics/SVG/1.1/DTD/svg11.dtd">
<!-- Generated by graphviz version 2.43.0 (0)
 -->
<!-- Title: %3 Pages: 1 -->
<svg width="9841pt" height="692pt"
 viewBox="0.00 0.00 9841.42 692.00" xmlns="http://www.w3.org/2000/svg" xmlns:xlink="http://www.w3.org/1999/xlink">
<g id="graph0" class="graph" transform="scale(1 1) rotate(0) translate(4 688)">
<title>%3</title>
<polygon fill="white" stroke="transparent" points="-4,4 -4,-688 9837.42,-688 9837.42,4 -4,4"/>
<!-- [root] aws_eip.ip (expand) -->
<g id="node1" class="node">
<title>[root] aws_eip.ip (expand)</title>
<polygon fill="none" stroke="black" points="9088.42,-468 8997.42,-468 8997.42,-432 9088.42,-432 9088.42,-468"/>
<text text-anchor="middle" x="9042.92" y="-446.3" font-family="Times,serif" font-size="14.00">aws_eip.ip</text>
</g>
<!-- [root] aws_instance.example_a (expand) -->
<g id="node2" class="node">
<title>[root] aws_instance.example_a (expand)</title>
<polygon fill="none" stroke="black" points="9709.42,-180 9518.42,-180 9518.42,-144 9709.42,-144 9709.42,-180"/>
<text text-anchor="middle" x="9613.92" y="-158.3" font-family="Times,serif" font-size="14.00">aws_instance.example_a</text>
</g>
<!-- [root] aws_eip.ip (expand)&#45;&gt;[root] aws_instance.example_a (expand) -->
<g id="edge1" class="edge">
<title>[root] aws_eip.ip (expand)&#45;&gt;[root] aws_instance.example_a (expand)</title>
<path fill="none" stroke="black" d="M9088.8,-445.28C9208.73,-434.58 9526.97,-399.5 9594.92,-324 9627.85,-287.41 9624.65,-225.66 9619.32,-190.22"/>
<polygon fill="black" stroke="black" points="9622.73,-189.4 9617.63,-180.12 9615.83,-190.56 9622.73,-189.4"/>
</g>
<!-- [root] data.aws_ami.amazon_linux (expand) -->
<g id="node6" class="node">
<title>[root] data.aws_ami.amazon_linux (expand)</title>
<polygon fill="none" stroke="black" points="9721.42,-108 9506.42,-108 9506.42,-72 9721.42,-72 9721.42,-108"/>
<text text-anchor="middle" x="9613.92" y="-86.3" font-family="Times,serif" font-size="14.00">data.aws_ami.amazon_linux</text>
</g>
<!-- [root] aws_instance.example_a (expand)&#45;&gt;[root] data.aws_ami.amazon_linux (expand) -->
<g id="edge2" class="edge">
<title>[root] aws_instance.example_a (expand)&#45;&gt;[root] data.aws_ami.amazon_linux (expand)</title>
<path fill="none" stroke="black" d="M9613.92,-143.7C9613.92,-135.98 9613.92,-126.71 9613.92,-118.11"/>
<polygon fill="black" stroke="black" points="9617.42,-118.1 9613.92,-108.1 9610.42,-118.1 9617.42,-118.1"/>
</g>
<!-- [root] aws_instance.example_b (expand) -->
<g id="node3" class="node">
<title>[root] aws_instance.example_b (expand)</title>
<polygon fill="none" stroke="black" points="9833.42,-252 9642.42,-252 9642.42,-216 9833.42,-216 9833.42,-252"/>
<text text-anchor="middle" x="9737.92" y="-230.3" font-family="Times,serif" font-size="14.00">aws_instance.example_b</text>
</g>
<!-- [root] aws_instance.example_b (expand)&#45;&gt;[root] data.aws_ami.amazon_linux (expand) -->
<g id="edge3" class="edge">
<title>[root] aws_instance.example_b (expand)&#45;&gt;[root] data.aws_ami.amazon_linux (expand)</title>
<path fill="none" stroke="black" d="M9738.23,-215.78C9737.71,-196.4 9734.14,-164.89 9717.92,-144 9707.57,-130.68 9692.96,-120.42 9677.95,-112.63"/>
<polygon fill="black" stroke="black" points="9679.12,-109.31 9668.59,-108.1 9676.07,-115.61 9679.12,-109.31"/>
</g>
<!-- [root] aws_instance.example_c (expand) -->
<g id="node4" class="node">
<title>[root] aws_instance.example_c (expand)</title>
<polygon fill="none" stroke="black" points="9489.92,-180 9299.92,-180 9299.92,-144 9489.92,-144 9489.92,-180"/>
<text text-anchor="middle" x="9394.92" y="-158.3" font-family="Times,serif" font-size="14.00">aws_instance.example_c</text>
</g>
<!-- [root] aws_s3_bucket.example (expand) -->
<g id="node5" class="node">
<title>[root] aws_s3_bucket.example (expand)</title>
<polygon fill="none" stroke="black" points="9488.42,-108 9301.42,-108 9301.42,-72 9488.42,-72 9488.42,-108"/>
<text text-anchor="middle" x="9394.92" y="-86.3" font-family="Times,serif" font-size="14.00">aws_s3_bucket.example</text>
</g>
<!-- [root] aws_instance.example_c (expand)&#45;&gt;[root] aws_s3_bucket.example (expand) -->
<g id="edge4" class="edge">
<title>[root] aws_instance.example_c (expand)&#45;&gt;[root] aws_s3_bucket.example (expand)</title>
<path fill="none" stroke="black" d="M9394.92,-143.7C9394.92,-135.98 9394.92,-126.71 9394.92,-118.11"/>
<polygon fill="black" stroke="black" points="9398.42,-118.1 9394.92,-108.1 9391.42,-118.1 9398.42,-118.1"/>
</g>
<!-- [root] aws_instance.example_c (expand)&#45;&gt;[root] data.aws_ami.amazon_linux (expand) -->
<g id="edge5" class="edge">
<title>[root] aws_instance.example_c (expand)&#45;&gt;[root] data.aws_ami.amazon_linux (expand)</title>
<path fill="none" stroke="black" d="M9448.21,-143.97C9479.08,-134.1 9518.12,-121.62 9550.55,-111.25"/>
<polygon fill="black" stroke="black" points="9551.93,-114.49 9560.39,-108.11 9549.79,-107.82 9551.93,-114.49"/>
</g>
<!-- [root] provider[&quot;registry.terraform.io/hashicorp/aws&quot;] -->
<g id="node9" class="node">
<title>[root] provider[&quot;registry.terraform.io/hashicorp/aws&quot;]</title>
<polygon fill="none" stroke="black" points="9503.92,-36 9178.65,-18 9503.92,0 9829.18,-18 9503.92,-36"/>
<text text-anchor="middle" x="9503.92" y="-14.3" font-family="Times,serif" font-size="14.00">provider[&quot;registry.terraform.io/hashicorp/aws&quot;]</text>
</g>
<!-- [root] aws_s3_bucket.example (expand)&#45;&gt;[root] provider[&quot;registry.terraform.io/hashicorp/aws&quot;] -->
<g id="edge6" class="edge">
<title>[root] aws_s3_bucket.example (expand)&#45;&gt;[root] provider[&quot;registry.terraform.io/hashicorp/aws&quot;]</title>
<path fill="none" stroke="black" d="M9421.58,-71.88C9436.47,-62.31 9455.15,-50.32 9470.95,-40.17"/>
<polygon fill="black" stroke="black" points="9472.87,-43.1 9479.39,-34.75 9469.09,-37.21 9472.87,-43.1"/>
</g>
<!-- [root] data.aws_ami.amazon_linux (expand)&#45;&gt;[root] provider[&quot;registry.terraform.io/hashicorp/aws&quot;] -->
<g id="edge7" class="edge">
<title>[root] data.aws_ami.amazon_linux (expand)&#45;&gt;[root] provider[&quot;registry.terraform.io/hashicorp/aws&quot;]</title>
<path fill="none" stroke="black" d="M9587.01,-71.88C9571.98,-62.31 9553.13,-50.32 9537.19,-40.17"/>
<polygon fill="black" stroke="black" points="9538.98,-37.17 9528.67,-34.75 9535.23,-43.07 9538.98,-37.17"/>
</g>
<!-- [root] module.example_sqs_queue.aws_sqs_queue.this (expand) -->
<g id="node7" class="node">
<title>[root] module.example_sqs_queue.aws_sqs_queue.this (expand)</title>
<polygon fill="none" stroke="black" points="5789.42,-396 5430.42,-396 5430.42,-360 5789.42,-360 5789.42,-396"/>
<text text-anchor="middle" x="5609.92" y="-374.3" font-family="Times,serif" font-size="14.00">module.example_sqs_queue.aws_sqs_queue.this</text>
</g>
<!-- [root] module.example_sqs_queue.var.content_based_deduplication (expand) -->
<g id="node15" class="node">
<title>[root] module.example_sqs_queue.var.content_based_deduplication (expand)</title>
<ellipse fill="none" stroke="black" cx="365.92" cy="-306" rx="365.84" ry="18"/>
<text text-anchor="middle" x="365.92" y="-302.3" font-family="Times,serif" font-size="14.00">[root] module.example_sqs_queue.var.content_based_deduplication (expand)</text>
</g>
<!-- [root] module.example_sqs_queue.aws_sqs_queue.this (expand)&#45;&gt;[root] module.example_sqs_queue.var.content_based_deduplication (expand) -->
<g id="edge12" class="edge">
<title>[root] module.example_sqs_queue.aws_sqs_queue.this (expand)&#45;&gt;[root] module.example_sqs_queue.var.content_based_deduplication (expand)</title>
<path fill="none" stroke="black" d="M5430.26,-377.27C4791.7,-377.78 2571.99,-375.45 740.92,-324 702.41,-322.92 661.69,-321.43 621.83,-319.78"/>
<polygon fill="black" stroke="black" points="621.85,-316.28 611.72,-319.36 621.56,-323.27 621.85,-316.28"/>
</g>
<!-- [root] module.example_sqs_queue.var.create (expand) -->
<g id="node16" class="node">
<title>[root] module.example_sqs_queue.var.create (expand)</title>
<ellipse fill="none" stroke="black" cx="1010.92" cy="-306" rx="260.75" ry="18"/>
<text text-anchor="middle" x="1010.92" y="-302.3" font-family="Times,serif" font-size="14.00">[root] module.example_sqs_queue.var.create (expand)</text>
</g>
<!-- [root] module.example_sqs_queue.aws_sqs_queue.this (expand)&#45;&gt;[root] module.example_sqs_queue.var.create (expand) -->
<g id="edge13" class="edge">
<title>[root] module.example_sqs_queue.aws_sqs_queue.this (expand)&#45;&gt;[root] module.example_sqs_queue.var.create (expand)</title>
<path fill="none" stroke="black" d="M5430.39,-376.02C4720.52,-371.97 2107.95,-355.21 1279.92,-324 1252.85,-322.98 1224.26,-321.55 1196.24,-319.95"/>
<polygon fill="black" stroke="black" points="1196.13,-316.44 1185.94,-319.36 1195.72,-323.43 1196.13,-316.44"/>
</g>
<!-- [root] module.example_sqs_queue.var.delay_seconds (expand) -->
<g id="node17" class="node">
<title>[root] module.example_sqs_queue.var.delay_seconds (expand)</title>
<ellipse fill="none" stroke="black" cx="1586.92" cy="-306" rx="297.85" ry="18"/>
<text text-anchor="middle" x="1586.92" y="-302.3" font-family="Times,serif" font-size="14.00">[root] module.example_sqs_queue.var.delay_seconds (expand)</text>
</g>
<!-- [root] module.example_sqs_queue.aws_sqs_queue.this (expand)&#45;&gt;[root] module.example_sqs_queue.var.delay_seconds (expand) -->
<g id="edge14" class="edge">
<title>[root] module.example_sqs_queue.aws_sqs_queue.this (expand)&#45;&gt;[root] module.example_sqs_queue.var.delay_seconds (expand)</title>
<path fill="none" stroke="black" d="M5429.99,-377.06C4892.57,-376.69 3252.22,-371.43 1892.92,-324 1862.09,-322.92 1829.53,-321.46 1797.61,-319.85"/>
<polygon fill="black" stroke="black" points="1797.43,-316.33 1787.27,-319.32 1797.07,-323.33 1797.43,-316.33"/>
</g>
<!-- [root] module.example_sqs_queue.var.fifo_queue (expand) -->
<g id="node18" class="node">
<title>[root] module.example_sqs_queue.var.fifo_queue (expand)</title>
<ellipse fill="none" stroke="black" cx="2180.92" cy="-306" rx="278.65" ry="18"/>
<text text-anchor="middle" x="2180.92" y="-302.3" font-family="Times,serif" font-size="14.00">[root] module.example_sqs_queue.var.fifo_queue (expand)</text>
</g>
<!-- [root] module.example_sqs_queue.aws_sqs_queue.this (expand)&#45;&gt;[root] module.example_sqs_queue.var.fifo_queue (expand) -->
<g id="edge15" class="edge">
<title>[root] module.example_sqs_queue.aws_sqs_queue.this (expand)&#45;&gt;[root] module.example_sqs_queue.var.fifo_queue (expand)</title>
<path fill="none" stroke="black" d="M5430.07,-376.63C4949.32,-375.05 3594.37,-366.84 2467.92,-324 2439.24,-322.91 2408.96,-321.45 2379.26,-319.84"/>
<polygon fill="black" stroke="black" points="2379.38,-316.35 2369.21,-319.29 2379,-323.34 2379.38,-316.35"/>
</g>
<!-- [root] module.example_sqs_queue.var.kms_data_key_reuse_period_seconds (expand) -->
<g id="node19" class="node">
<title>[root] module.example_sqs_queue.var.kms_data_key_reuse_period_seconds (expand)</title>
<ellipse fill="none" stroke="black" cx="2878.92" cy="-306" rx="401.83" ry="18"/>
<text text-anchor="middle" x="2878.92" y="-302.3" font-family="Times,serif" font-size="14.00">[root] module.example_sqs_queue.var.kms_data_key_reuse_period_seconds (expand)</text>
</g>
<!-- [root] module.example_sqs_queue.aws_sqs_queue.this (expand)&#45;&gt;[root] module.example_sqs_queue.var.kms_data_key_reuse_period_seconds (expand) -->
<g id="edge16" class="edge">
<title>[root] module.example_sqs_queue.aws_sqs_queue.this (expand)&#45;&gt;[root] module.example_sqs_queue.var.kms_data_key_reuse_period_seconds (expand)</title>
<path fill="none" stroke="black" d="M5430.13,-374.03C5040.23,-367.32 4087.72,-349.61 3289.92,-324 3249.44,-322.7 3206.73,-321.14 3164.77,-319.5"/>
<polygon fill="black" stroke="black" points="3164.82,-316 3154.69,-319.11 3164.54,-323 3164.82,-316"/>
</g>
<!-- [root] module.example_sqs_queue.var.kms_master_key_id (expand) -->
<g id="node20" class="node">
<title>[root] module.example_sqs_queue.var.kms_master_key_id (expand)</title>
<ellipse fill="none" stroke="black" cx="3619.92" cy="-306" rx="321.14" ry="18"/>
<text text-anchor="middle" x="3619.92" y="-302.3" font-family="Times,serif" font-size="14.00">[root] module.example_sqs_queue.var.kms_master_key_id (expand)</text>
</g>
<!-- [root] module.example_sqs_queue.aws_sqs_queue.this (expand)&#45;&gt;[root] module.example_sqs_queue.var.kms_master_key_id (expand) -->
<g id="edge17" class="edge">
<title>[root] module.example_sqs_queue.aws_sqs_queue.this (expand)&#45;&gt;[root] module.example_sqs_queue.var.kms_master_key_id (expand)</title>
<path fill="none" stroke="black" d="M5430.36,-372.4C5125.94,-364.36 4489.14,-346.42 3950.92,-324 3919.01,-322.67 3885.37,-321.12 3852.26,-319.5"/>
<polygon fill="black" stroke="black" points="3852.16,-315.99 3842,-319 3851.82,-322.99 3852.16,-315.99"/>
</g>
<!-- [root] module.example_sqs_queue.var.max_message_size (expand) -->
<g id="node21" class="node">
<title>[root] module.example_sqs_queue.var.max_message_size (expand)</title>
<ellipse fill="none" stroke="black" cx="4277.92" cy="-306" rx="318.44" ry="18"/>
<text text-anchor="middle" x="4277.92" y="-302.3" font-family="Times,serif" font-size="14.00">[root] module.example_sqs_queue.var.max_message_size (expand)</text>
</g>
<!-- [root] module.example_sqs_queue.aws_sqs_queue.this (expand)&#45;&gt;[root] module.example_sqs_queue.var.max_message_size (expand) -->
<g id="edge18" class="edge">
<title>[root] module.example_sqs_queue.aws_sqs_queue.this (expand)&#45;&gt;[root] module.example_sqs_queue.var.max_message_size (expand)</title>
<path fill="none" stroke="black" d="M5430.28,-367.56C5192.96,-355.09 4774.47,-333.09 4512.44,-319.32"/>
<polygon fill="black" stroke="black" points="4512.58,-315.83 4502.41,-318.8 4512.21,-322.82 4512.58,-315.83"/>
</g>
<!-- [root] module.example_sqs_queue.var.message_retention_seconds (expand) -->
<g id="node22" class="node">
<title>[root] module.example_sqs_queue.var.message_retention_seconds (expand)</title>
<ellipse fill="none" stroke="black" cx="4974.92" cy="-306" rx="360.94" ry="18"/>
<text text-anchor="middle" x="4974.92" y="-302.3" font-family="Times,serif" font-size="14.00">[root] module.example_sqs_queue.var.message_retention_seconds (expand)</text>
</g>
<!-- [root] module.example_sqs_queue.aws_sqs_queue.this (expand)&#45;&gt;[root] module.example_sqs_queue.var.message_retention_seconds (expand) -->
<g id="edge19" class="edge">
<title>[root] module.example_sqs_queue.aws_sqs_queue.this (expand)&#45;&gt;[root] module.example_sqs_queue.var.message_retention_seconds (expand)</title>
<path fill="none" stroke="black" d="M5455.39,-359.97C5355.39,-348.94 5225.8,-334.66 5126.41,-323.7"/>
<polygon fill="black" stroke="black" points="5126.6,-320.2 5116.28,-322.58 5125.83,-327.16 5126.6,-320.2"/>
</g>
<!-- [root] module.example_sqs_queue.var.name (expand) -->
<g id="node23" class="node">
<title>[root] module.example_sqs_queue.var.name (expand)</title>
<ellipse fill="none" stroke="black" cx="5609.92" cy="-306" rx="256.95" ry="18"/>
<text text-anchor="middle" x="5609.92" y="-302.3" font-family="Times,serif" font-size="14.00">[root] module.example_sqs_queue.var.name (expand)</text>
</g>
<!-- [root] module.example_sqs_queue.aws_sqs_queue.this (expand)&#45;&gt;[root] module.example_sqs_queue.var.name (expand) -->
<g id="edge20" class="edge">
<title>[root] module.example_sqs_queue.aws_sqs_queue.this (expand)&#45;&gt;[root] module.example_sqs_queue.var.name (expand)</title>
<path fill="none" stroke="black" d="M5609.92,-359.7C5609.92,-351.98 5609.92,-342.71 5609.92,-334.11"/>
<polygon fill="black" stroke="black" points="5613.42,-334.1 5609.92,-324.1 5606.42,-334.1 5613.42,-334.1"/>
</g>
<!-- [root] module.example_sqs_queue.var.name_prefix (expand) -->
<g id="node24" class="node">
<title>[root] module.example_sqs_queue.var.name_prefix (expand)</title>
<ellipse fill="none" stroke="black" cx="6172.92" cy="-306" rx="287.85" ry="18"/>
<text text-anchor="middle" x="6172.92" y="-302.3" font-family="Times,serif" font-size="14.00">[root] module.example_sqs_queue.var.name_prefix (expand)</text>
</g>
<!-- [root] module.example_sqs_queue.aws_sqs_queue.this (expand)&#45;&gt;[root] module.example_sqs_queue.var.name_prefix (expand) -->
<g id="edge21" class="edge">
<title>[root] module.example_sqs_queue.aws_sqs_queue.this (expand)&#45;&gt;[root] module.example_sqs_queue.var.name_prefix (expand)</title>
<path fill="none" stroke="black" d="M5746.92,-359.97C5835.93,-348.9 5951.38,-334.54 6039.64,-323.57"/>
<polygon fill="black" stroke="black" points="6040.23,-327.03 6049.72,-322.32 6039.36,-320.08 6040.23,-327.03"/>
</g>
<!-- [root] module.example_sqs_queue.var.policy (expand) -->
<g id="node25" class="node">
<title>[root] module.example_sqs_queue.var.policy (expand)</title>
<ellipse fill="none" stroke="black" cx="6737.92" cy="-306" rx="258.85" ry="18"/>
<text text-anchor="middle" x="6737.92" y="-302.3" font-family="Times,serif" font-size="14.00">[root] module.example_sqs_queue.var.policy (expand)</text>
</g>
<!-- [root] module.example_sqs_queue.aws_sqs_queue.this (expand)&#45;&gt;[root] module.example_sqs_queue.var.policy (expand) -->
<g id="edge22" class="edge">
<title>[root] module.example_sqs_queue.aws_sqs_queue.this (expand)&#45;&gt;[root] module.example_sqs_queue.var.policy (expand)</title>
<path fill="none" stroke="black" d="M5789.46,-366.03C5963.45,-355.38 6234.77,-338.7 6469.92,-324 6493.84,-322.5 6518.97,-320.92 6543.84,-319.35"/>
<polygon fill="black" stroke="black" points="6544.35,-322.83 6554.11,-318.7 6543.91,-315.84 6544.35,-322.83"/>
</g>
<!-- [root] module.example_sqs_queue.var.receive_wait_time_seconds (expand) -->
<g id="node26" class="node">
<title>[root] module.example_sqs_queue.var.receive_wait_time_seconds (expand)</title>
<ellipse fill="none" stroke="black" cx="7370.92" cy="-306" rx="356.34" ry="18"/>
<text text-anchor="middle" x="7370.92" y="-302.3" font-family="Times,serif" font-size="14.00">[root] module.example_sqs_queue.var.receive_wait_time_seconds (expand)</text>
</g>
<!-- [root] module.example_sqs_queue.aws_sqs_queue.this (expand)&#45;&gt;[root] module.example_sqs_queue.var.receive_wait_time_seconds (expand) -->
<g id="edge23" class="edge">
<title>[root] module.example_sqs_queue.aws_sqs_queue.this (expand)&#45;&gt;[root] module.example_sqs_queue.var.receive_wait_time_seconds (expand)</title>
<path fill="none" stroke="black" d="M5789.54,-370.67C6055.35,-361.2 6569.14,-342.46 7005.92,-324 7040.1,-322.56 7076.08,-320.96 7111.58,-319.35"/>
<polygon fill="black" stroke="black" points="7111.74,-322.85 7121.58,-318.9 7111.43,-315.86 7111.74,-322.85"/>
</g>
<!-- [root] module.example_sqs_queue.var.redrive_policy (expand) -->
<g id="node27" class="node">
<title>[root] module.example_sqs_queue.var.redrive_policy (expand)</title>
<ellipse fill="none" stroke="black" cx="8041.92" cy="-306" rx="297.05" ry="18"/>
<text text-anchor="middle" x="8041.92" y="-302.3" font-family="Times,serif" font-size="14.00">[root] module.example_sqs_queue.var.redrive_policy (expand)</text>
</g>
<!-- [root] module.example_sqs_queue.aws_sqs_queue.this (expand)&#45;&gt;[root] module.example_sqs_queue.var.redrive_policy (expand) -->
<g id="edge24" class="edge">
<title>[root] module.example_sqs_queue.aws_sqs_queue.this (expand)&#45;&gt;[root] module.example_sqs_queue.var.redrive_policy (expand)</title>
<path fill="none" stroke="black" d="M5789.52,-374.38C6155.7,-368.61 7014.92,-353.01 7735.92,-324 7765.9,-322.79 7797.52,-321.29 7828.61,-319.69"/>
<polygon fill="black" stroke="black" points="7828.88,-323.18 7838.68,-319.16 7828.51,-316.19 7828.88,-323.18"/>
</g>
<!-- [root] module.example_sqs_queue.var.tags (expand) -->
<g id="node28" class="node">
<title>[root] module.example_sqs_queue.var.tags (expand)</title>
<ellipse fill="none" stroke="black" cx="8608.92" cy="-306" rx="251.56" ry="18"/>
<text text-anchor="middle" x="8608.92" y="-302.3" font-family="Times,serif" font-size="14.00">[root] module.example_sqs_queue.var.tags (expand)</text>
</g>
<!-- [root] module.example_sqs_queue.aws_sqs_queue.this (expand)&#45;&gt;[root] module.example_sqs_queue.var.tags (expand) -->
<g id="edge25" class="edge">
<title>[root] module.example_sqs_queue.aws_sqs_queue.this (expand)&#45;&gt;[root] module.example_sqs_queue.var.tags (expand)</title>
<path fill="none" stroke="black" d="M5789.8,-376.36C6227.71,-374.18 7383.94,-364.7 8347.92,-324 8373.76,-322.91 8401.03,-321.46 8427.81,-319.87"/>
<polygon fill="black" stroke="black" points="8428.28,-323.35 8438.05,-319.25 8427.85,-316.36 8428.28,-323.35"/>
</g>
<!-- [root] module.example_sqs_queue.var.visibility_timeout_seconds (expand) -->
<g id="node29" class="node">
<title>[root] module.example_sqs_queue.var.visibility_timeout_seconds (expand)</title>
<ellipse fill="none" stroke="black" cx="9231.92" cy="-306" rx="353.64" ry="18"/>
<text text-anchor="middle" x="9231.92" y="-302.3" font-family="Times,serif" font-size="14.00">[root] module.example_sqs_queue.var.visibility_timeout_seconds (expand)</text>
</g>
<!-- [root] module.example_sqs_queue.aws_sqs_queue.this (expand)&#45;&gt;[root] module.example_sqs_queue.var.visibility_timeout_seconds (expand) -->
<g id="edge26" class="edge">
<title>[root] module.example_sqs_queue.aws_sqs_queue.this (expand)&#45;&gt;[root] module.example_sqs_queue.var.visibility_timeout_seconds (expand)</title>
<path fill="none" stroke="black" d="M5789.76,-376.01C6282.47,-372.88 7695.6,-361.11 8869.92,-324 8906.29,-322.85 8944.7,-321.35 8982.37,-319.72"/>
<polygon fill="black" stroke="black" points="8982.61,-323.22 8992.45,-319.28 8982.31,-316.22 8982.61,-323.22"/>
</g>
<!-- [root] module.example_sqs_queue.data.aws_arn.this (expand) -->
<g id="node8" class="node">
<title>[root] module.example_sqs_queue.data.aws_arn.this (expand)</title>
<polygon fill="none" stroke="black" points="6847.42,-468 6502.42,-468 6502.42,-432 6847.42,-432 6847.42,-468"/>
<text text-anchor="middle" x="6674.92" y="-446.3" font-family="Times,serif" font-size="14.00">module.example_sqs_queue.data.aws_arn.this</text>
</g>
<!-- [root] module.example_sqs_queue.data.aws_arn.this (expand)&#45;&gt;[root] module.example_sqs_queue.aws_sqs_queue.this (expand) -->
<g id="edge27" class="edge">
<title>[root] module.example_sqs_queue.data.aws_arn.this (expand)&#45;&gt;[root] module.example_sqs_queue.aws_sqs_queue.this (expand)</title>
<path fill="none" stroke="black" d="M6502.33,-437.66C6309.63,-424.99 5998.72,-404.56 5799.42,-391.46"/>
<polygon fill="black" stroke="black" points="5799.63,-387.96 5789.42,-390.8 5799.17,-394.95 5799.63,-387.96"/>
</g>
<!-- [root] module.example_sqs_queue (close) -->
<g id="node10" class="node">
<title>[root] module.example_sqs_queue (close)</title>
<ellipse fill="none" stroke="black" cx="6325.92" cy="-594" rx="201.46" ry="18"/>
<text text-anchor="middle" x="6325.92" y="-590.3" font-family="Times,serif" font-size="14.00">[root] module.example_sqs_queue (close)</text>
</g>
<!-- [root] module.example_sqs_queue.output.this_sqs_queue_arn (expand) -->
<g id="node11" class="node">
<title>[root] module.example_sqs_queue.output.this_sqs_queue_arn (expand)</title>
<ellipse fill="none" stroke="black" cx="5609.92" cy="-450" rx="338.74" ry="18"/>
<text text-anchor="middle" x="5609.92" y="-446.3" font-family="Times,serif" font-size="14.00">[root] module.example_sqs_queue.output.this_sqs_queue_arn (expand)</text>
</g>
<!-- [root] module.example_sqs_queue (close)&#45;&gt;[root] module.example_sqs_queue.output.this_sqs_queue_arn (expand) -->
<g id="edge8" class="edge">
<title>[root] module.example_sqs_queue (close)&#45;&gt;[root] module.example_sqs_queue.output.this_sqs_queue_arn (expand)</title>
<path fill="none" stroke="black" d="M6131.66,-589.14C5941.47,-583.6 5674.86,-570.47 5636.92,-540 5618.67,-525.35 5612.43,-498.75 5610.45,-478.44"/>
<polygon fill="black" stroke="black" points="5613.92,-477.94 5609.75,-468.2 5606.94,-478.42 5613.92,-477.94"/>
</g>
<!-- [root] module.example_sqs_queue.output.this_sqs_queue_id (expand) -->
<g id="node12" class="node">
<title>[root] module.example_sqs_queue.output.this_sqs_queue_id (expand)</title>
<ellipse fill="none" stroke="black" cx="5976.92" cy="-522" rx="331.44" ry="18"/>
<text text-anchor="middle" x="5976.92" y="-518.3" font-family="Times,serif" font-size="14.00">[root] module.example_sqs_queue.output.this_sqs_queue_id (expand)</text>
</g>
<!-- [root] module.example_sqs_queue (close)&#45;&gt;[root] module.example_sqs_queue.output.this_sqs_queue_id (expand) -->
<g id="edge9" class="edge">
<title>[root] module.example_sqs_queue (close)&#45;&gt;[root] module.example_sqs_queue.output.this_sqs_queue_id (expand)</title>
<path fill="none" stroke="black" d="M6248.03,-577.38C6195.06,-566.75 6124.75,-552.65 6069,-541.47"/>
<polygon fill="black" stroke="black" points="6069.62,-538.02 6059.12,-539.49 6068.24,-544.89 6069.62,-538.02"/>
</g>
<!-- [root] module.example_sqs_queue.output.this_sqs_queue_name (expand) -->
<g id="node13" class="node">
<title>[root] module.example_sqs_queue.output.this_sqs_queue_name (expand)</title>
<ellipse fill="none" stroke="black" cx="6674.92" cy="-522" rx="348.24" ry="18"/>
<text text-anchor="middle" x="6674.92" y="-518.3" font-family="Times,serif" font-size="14.00">[root] module.example_sqs_queue.output.this_sqs_queue_name (expand)</text>
</g>
<!-- [root] module.example_sqs_queue (close)&#45;&gt;[root] module.example_sqs_queue.output.this_sqs_queue_name (expand) -->
<g id="edge10" class="edge">
<title>[root] module.example_sqs_queue (close)&#45;&gt;[root] module.example_sqs_queue.output.this_sqs_queue_name (expand)</title>
<path fill="none" stroke="black" d="M6403.81,-577.38C6456.68,-566.77 6526.84,-552.7 6582.53,-541.53"/>
<polygon fill="black" stroke="black" points="6583.29,-544.95 6592.4,-539.55 6581.91,-538.09 6583.29,-544.95"/>
</g>
<!-- [root] module.example_sqs_queue.output.this_sqs_queue_arn (expand)&#45;&gt;[root] module.example_sqs_queue.aws_sqs_queue.this (expand) -->
<g id="edge28" class="edge">
<title>[root] module.example_sqs_queue.output.this_sqs_queue_arn (expand)&#45;&gt;[root] module.example_sqs_queue.aws_sqs_queue.this (expand)</title>
<path fill="none" stroke="black" d="M5609.92,-431.7C5609.92,-423.98 5609.92,-414.71 5609.92,-406.11"/>
<polygon fill="black" stroke="black" points="5613.42,-406.1 5609.92,-396.1 5606.42,-406.1 5613.42,-406.1"/>
</g>
<!-- [root] module.example_sqs_queue.output.this_sqs_queue_id (expand)&#45;&gt;[root] module.example_sqs_queue.aws_sqs_queue.this (expand) -->
<g id="edge29" class="edge">
<title>[root] module.example_sqs_queue.output.this_sqs_queue_id (expand)&#45;&gt;[root] module.example_sqs_queue.aws_sqs_queue.this (expand)</title>
<path fill="none" stroke="black" d="M5978.54,-503.85C5979.43,-483.62 5977.46,-450.42 5957.92,-432 5933.81,-409.28 5867.7,-396.3 5799.5,-388.88"/>
<polygon fill="black" stroke="black" points="5799.73,-385.38 5789.42,-387.82 5799.01,-392.35 5799.73,-385.38"/>
</g>
<!-- [root] module.example_sqs_queue.output.this_sqs_queue_name (expand)&#45;&gt;[root] module.example_sqs_queue.data.aws_arn.this (expand) -->
<g id="edge30" class="edge">
<title>[root] module.example_sqs_queue.output.this_sqs_queue_name (expand)&#45;&gt;[root] module.example_sqs_queue.data.aws_arn.this (expand)</title>
<path fill="none" stroke="black" d="M6674.92,-503.7C6674.92,-495.98 6674.92,-486.71 6674.92,-478.11"/>
<polygon fill="black" stroke="black" points="6678.42,-478.1 6674.92,-468.1 6671.42,-478.1 6678.42,-478.1"/>
</g>
<!-- [root] module.example_sqs_queue (expand) -->
<g id="node14" class="node">
<title>[root] module.example_sqs_queue (expand)</title>
<ellipse fill="none" stroke="black" cx="5292.92" cy="-234" rx="211.76" ry="18"/>
<text text-anchor="middle" x="5292.92" y="-230.3" font-family="Times,serif" font-size="14.00">[root] module.example_sqs_queue (expand)</text>
</g>
<!-- [root] module.example_sqs_queue (expand)&#45;&gt;[root] aws_instance.example_c (expand) -->
<g id="edge11" class="edge">
<title>[root] module.example_sqs_queue (expand)&#45;&gt;[root] aws_instance.example_c (expand)</title>
<path fill="none" stroke="black" d="M5498.09,-229.5C6236.49,-216.9 8743.6,-174.11 9289.44,-164.8"/>
<polygon fill="black" stroke="black" points="9289.73,-168.3 9299.66,-164.63 9289.61,-161.3 9289.73,-168.3"/>
</g>
<!-- [root] module.example_sqs_queue.var.content_based_deduplication (expand)&#45;&gt;[root] module.example_sqs_queue (expand) -->
<g id="edge31" class="edge">
<title>[root] module.example_sqs_queue.var.content_based_deduplication (expand)&#45;&gt;[root] module.example_sqs_queue (expand)</title>
<path fill="none" stroke="black" d="M611.97,-292.66C654.94,-290.84 699.22,-289.19 740.92,-288 2404.7,-240.62 4411.7,-235.32 5071.2,-234.94"/>
<polygon fill="black" stroke="black" points="5071.29,-238.44 5081.29,-234.93 5071.29,-231.44 5071.29,-238.44"/>
</g>
<!-- [root] module.example_sqs_queue.var.create (expand)&#45;&gt;[root] module.example_sqs_queue (expand) -->
<g id="edge32" class="edge">
<title>[root] module.example_sqs_queue.var.create (expand)&#45;&gt;[root] module.example_sqs_queue (expand)</title>
<path fill="none" stroke="black" d="M1186.3,-292.65C1217.47,-290.81 1249.64,-289.16 1279.92,-288 2027.74,-259.45 4346.11,-241.5 5072.77,-236.46"/>
<polygon fill="black" stroke="black" points="5072.85,-239.96 5082.83,-236.39 5072.8,-232.96 5072.85,-239.96"/>
</g>
<!-- [root] module.example_sqs_queue.var.delay_seconds (expand)&#45;&gt;[root] module.example_sqs_queue (expand) -->
<g id="edge33" class="edge">
<title>[root] module.example_sqs_queue.var.delay_seconds (expand)&#45;&gt;[root] module.example_sqs_queue (expand)</title>
<path fill="none" stroke="black" d="M1787.68,-292.7C1822.75,-290.88 1858.89,-289.21 1892.92,-288 3091.39,-245.38 4528.72,-237.03 5071.19,-235.4"/>
<polygon fill="black" stroke="black" points="5071.49,-238.89 5081.48,-235.36 5071.47,-231.89 5071.49,-238.89"/>
</g>
<!-- [root] module.example_sqs_queue.var.fifo_queue (expand)&#45;&gt;[root] module.example_sqs_queue (expand) -->
<g id="edge34" class="edge">
<title>[root] module.example_sqs_queue.var.fifo_queue (expand)&#45;&gt;[root] module.example_sqs_queue (expand)</title>
<path fill="none" stroke="black" d="M2369.59,-292.73C2402.36,-290.92 2436.12,-289.24 2467.92,-288 3437.66,-250.2 4595.74,-239.17 5071.89,-236.11"/>
<polygon fill="black" stroke="black" points="5072,-239.61 5081.97,-236.05 5071.95,-232.61 5072,-239.61"/>
</g>
<!-- [root] module.example_sqs_queue.var.kms_data_key_reuse_period_seconds (expand)&#45;&gt;[root] module.example_sqs_queue (expand) -->
<g id="edge35" class="edge">
<title>[root] module.example_sqs_queue.var.kms_data_key_reuse_period_seconds (expand)&#45;&gt;[root] module.example_sqs_queue (expand)</title>
<path fill="none" stroke="black" d="M3156.35,-292.96C3201.01,-291.19 3246.74,-289.46 3289.92,-288 3942.2,-265.88 4714.24,-247.72 5080.14,-239.59"/>
<polygon fill="black" stroke="black" points="5080.39,-243.09 5090.31,-239.36 5080.24,-236.09 5080.39,-243.09"/>
</g>
<!-- [root] module.example_sqs_queue.var.kms_master_key_id (expand)&#45;&gt;[root] module.example_sqs_queue (expand) -->
<g id="edge36" class="edge">
<title>[root] module.example_sqs_queue.var.kms_master_key_id (expand)&#45;&gt;[root] module.example_sqs_queue (expand)</title>
<path fill="none" stroke="black" d="M3844.24,-293.12C3879.92,-291.33 3916.43,-289.57 3950.92,-288 4355.81,-269.61 4829.59,-251.76 5092.02,-242.19"/>
<polygon fill="black" stroke="black" points="5092.18,-245.69 5102.04,-241.83 5091.92,-238.69 5092.18,-245.69"/>
</g>
<!-- [root] module.example_sqs_queue.var.max_message_size (expand)&#45;&gt;[root] module.example_sqs_queue (expand) -->
<g id="edge37" class="edge">
<title>[root] module.example_sqs_queue.var.max_message_size (expand)&#45;&gt;[root] module.example_sqs_queue (expand)</title>
<path fill="none" stroke="black" d="M4471.22,-291.67C4659.91,-278.66 4944.13,-259.05 5124,-246.65"/>
<polygon fill="black" stroke="black" points="5124.35,-250.13 5134.09,-245.95 5123.87,-243.15 5124.35,-250.13"/>
</g>
<!-- [root] module.example_sqs_queue.var.message_retention_seconds (expand)&#45;&gt;[root] module.example_sqs_queue (expand) -->
<g id="edge38" class="edge">
<title>[root] module.example_sqs_queue.var.message_retention_seconds (expand)&#45;&gt;[root] module.example_sqs_queue (expand)</title>
<path fill="none" stroke="black" d="M5050.68,-288.32C5098.8,-277.73 5161.09,-264.02 5210.46,-253.15"/>
<polygon fill="black" stroke="black" points="5211.45,-256.52 5220.47,-250.95 5209.95,-249.68 5211.45,-256.52"/>
</g>
<!-- [root] module.example_sqs_queue.var.name (expand)&#45;&gt;[root] module.example_sqs_queue (expand) -->
<g id="edge39" class="edge">
<title>[root] module.example_sqs_queue.var.name (expand)&#45;&gt;[root] module.example_sqs_queue (expand)</title>
<path fill="none" stroke="black" d="M5536,-288.68C5487.71,-278.01 5424.62,-264.08 5374.82,-253.09"/>
<polygon fill="black" stroke="black" points="5375.56,-249.67 5365.04,-250.93 5374.05,-256.5 5375.56,-249.67"/>
</g>
<!-- [root] module.example_sqs_queue.var.name_prefix (expand)&#45;&gt;[root] module.example_sqs_queue (expand) -->
<g id="edge40" class="edge">
<title>[root] module.example_sqs_queue.var.name_prefix (expand)&#45;&gt;[root] module.example_sqs_queue (expand)</title>
<path fill="none" stroke="black" d="M6002.72,-291.46C5843.46,-278.79 5607.39,-260.02 5451.88,-247.64"/>
<polygon fill="black" stroke="black" points="5452,-244.14 5441.75,-246.84 5451.44,-251.12 5452,-244.14"/>
</g>
<!-- [root] module.example_sqs_queue.var.policy (expand)&#45;&gt;[root] module.example_sqs_queue (expand) -->
<g id="edge41" class="edge">
<title>[root] module.example_sqs_queue.var.policy (expand)&#45;&gt;[root] module.example_sqs_queue (expand)</title>
<path fill="none" stroke="black" d="M6557.38,-293.09C6528.15,-291.3 6498.2,-289.53 6469.92,-288 6125.77,-269.34 5724.76,-252.28 5490.83,-242.8"/>
<polygon fill="black" stroke="black" points="5490.64,-239.29 5480.51,-242.38 5490.36,-246.29 5490.64,-239.29"/>
</g>
<!-- [root] module.example_sqs_queue.var.receive_wait_time_seconds (expand)&#45;&gt;[root] module.example_sqs_queue (expand) -->
<g id="edge42" class="edge">
<title>[root] module.example_sqs_queue.var.receive_wait_time_seconds (expand)&#45;&gt;[root] module.example_sqs_queue (expand)</title>
<path fill="none" stroke="black" d="M7124.54,-293C7084.88,-291.22 7044.27,-289.49 7005.92,-288 6464,-267 5825.38,-249.03 5502.49,-240.43"/>
<polygon fill="black" stroke="black" points="5502.17,-236.92 5492.08,-240.15 5501.98,-243.92 5502.17,-236.92"/>
</g>
<!-- [root] module.example_sqs_queue.var.redrive_policy (expand)&#45;&gt;[root] module.example_sqs_queue (expand) -->
<g id="edge43" class="edge">
<title>[root] module.example_sqs_queue.var.redrive_policy (expand)&#45;&gt;[root] module.example_sqs_queue (expand)</title>
<path fill="none" stroke="black" d="M7839.51,-292.79C7804.95,-290.98 7769.41,-289.29 7735.92,-288 6915.68,-256.33 5939.74,-242.26 5512.04,-237.27"/>
<polygon fill="black" stroke="black" points="5511.77,-233.77 5501.73,-237.15 5511.69,-240.77 5511.77,-233.77"/>
</g>
<!-- [root] module.example_sqs_queue.var.tags (expand)&#45;&gt;[root] module.example_sqs_queue (expand) -->
<g id="edge44" class="edge">
<title>[root] module.example_sqs_queue.var.tags (expand)&#45;&gt;[root] module.example_sqs_queue (expand)</title>
<path fill="none" stroke="black" d="M8438.75,-292.74C8408.51,-290.9 8377.29,-289.21 8347.92,-288 7287.57,-244.29 6018.77,-236.53 5514.89,-235.23"/>
<polygon fill="black" stroke="black" points="5514.61,-231.72 5504.6,-235.2 5514.59,-238.72 5514.61,-231.72"/>
</g>
<!-- [root] module.example_sqs_queue.var.visibility_timeout_seconds (expand)&#45;&gt;[root] module.example_sqs_queue (expand) -->
<g id="edge45" class="edge">
<title>[root] module.example_sqs_queue.var.visibility_timeout_seconds (expand)&#45;&gt;[root] module.example_sqs_queue (expand)</title>
<path fill="none" stroke="black" d="M8993.42,-292.71C8952.25,-290.9 8909.85,-289.23 8869.92,-288 7599.88,-248.78 6075.26,-238.4 5514.11,-235.81"/>
<polygon fill="black" stroke="black" points="5513.9,-232.31 5503.88,-235.76 5513.86,-239.31 5513.9,-232.31"/>
</g>
<!-- [root] provider[&quot;registry.terraform.io/hashicorp/aws&quot;] (close) -->
<g id="node30" class="node">
<title>[root] provider[&quot;registry.terraform.io/hashicorp/aws&quot;] (close)</title>
<ellipse fill="none" stroke="black" cx="8472.92" cy="-522" rx="291.65" ry="18"/>
<text text-anchor="middle" x="8472.92" y="-518.3" font-family="Times,serif" font-size="14.00">[root] provider[&quot;registry.terraform.io/hashicorp/aws&quot;] (close)</text>
</g>
<!-- [root] provider[&quot;registry.terraform.io/hashicorp/aws&quot;] (close)&#45;&gt;[root] aws_eip.ip (expand) -->
<g id="edge46" class="edge">
<title>[root] provider[&quot;registry.terraform.io/hashicorp/aws&quot;] (close)&#45;&gt;[root] aws_eip.ip (expand)</title>
<path fill="none" stroke="black" d="M8597.65,-505.68C8718.96,-490.78 8897.65,-468.84 8987.31,-457.83"/>
<polygon fill="black" stroke="black" points="8987.77,-461.3 8997.27,-456.61 8986.92,-454.35 8987.77,-461.3"/>
</g>
<!-- [root] provider[&quot;registry.terraform.io/hashicorp/aws&quot;] (close)&#45;&gt;[root] aws_instance.example_b (expand) -->
<g id="edge47" class="edge">
<title>[root] provider[&quot;registry.terraform.io/hashicorp/aws&quot;] (close)&#45;&gt;[root] aws_instance.example_b (expand)</title>
<path fill="none" stroke="black" d="M8664.38,-508.39C8917.71,-489.86 9349.54,-451.38 9497.92,-396 9584.03,-363.86 9669.8,-295.27 9711.62,-258.86"/>
<polygon fill="black" stroke="black" points="9713.95,-261.47 9719.14,-252.24 9709.32,-256.22 9713.95,-261.47"/>
</g>
<!-- [root] provider[&quot;registry.terraform.io/hashicorp/aws&quot;] (close)&#45;&gt;[root] module.example_sqs_queue.data.aws_arn.this (expand) -->
<g id="edge48" class="edge">
<title>[root] provider[&quot;registry.terraform.io/hashicorp/aws&quot;] (close)&#45;&gt;[root] module.example_sqs_queue.data.aws_arn.this (expand)</title>
<path fill="none" stroke="black" d="M8233.69,-511.69C7869.65,-497.51 7184.46,-470.84 6857.51,-458.11"/>
<polygon fill="black" stroke="black" points="6857.59,-454.61 6847.46,-457.72 6857.32,-461.6 6857.59,-454.61"/>
</g>
<!-- [root] root -->
<g id="node31" class="node">
<title>[root] root</title>
<ellipse fill="none" stroke="black" cx="6439.92" cy="-666" rx="58.49" ry="18"/>
<text text-anchor="middle" x="6439.92" y="-662.3" font-family="Times,serif" font-size="14.00">[root] root</text>
</g>
<!-- [root] root&#45;&gt;[root] module.example_sqs_queue (close) -->
<g id="edge49" class="edge">
<title>[root] root&#45;&gt;[root] module.example_sqs_queue (close)</title>
<path fill="none" stroke="black" d="M6414.9,-649.64C6399.5,-640.18 6379.48,-627.89 6362.34,-617.36"/>
<polygon fill="black" stroke="black" points="6364.03,-614.29 6353.68,-612.04 6360.37,-620.26 6364.03,-614.29"/>
</g>
<!-- [root] root&#45;&gt;[root] provider[&quot;registry.terraform.io/hashicorp/aws&quot;] (close) -->
<g id="edge50" class="edge">
<title>[root] root&#45;&gt;[root] provider[&quot;registry.terraform.io/hashicorp/aws&quot;] (close)</title>
<path fill="none" stroke="black" d="M6496.41,-661.05C6754.89,-643 7831.25,-567.82 8277.63,-536.64"/>
<polygon fill="black" stroke="black" points="8278,-540.12 8287.73,-535.93 8277.51,-533.14 8278,-540.12"/>
</g>
</g>
</svg>
